<svg xmlns="http://www.w3.org/2000/svg" xmlns:xlink="http://www.w3.org/1999/xlink" version="1.1" x="0px" y="0px" viewBox="-4.545 0 100 125" enable-background="new -4.545 0 100 100" xml:space="preserve"><g fill="#2DDE98"><path fill="none" d="M32.913,43.92c2.26,4.982,5.841,8.576,10.013,9.718c0.464,0.128,0.935,0.224,1.412,0.288   c0.477,0.066,0.961,0.1,1.45,0.1c2.484,0,4.831-0.856,6.912-2.38c4.573-3.351,7.85-9.925,8.432-17.682   c0.105-0.729,0.163-1.474,0.174-2.23l-2.482,2.851c0.172-0.379,0.245-0.832,0.244-1.332c-0.017-3.508-3.75-9.415-3.75-9.415   c-8.215,5.942-20.432,0-20.432,0c-0.873,0.344-1.438,1.189-1.796,2.276c-0.671,2.029-0.615,4.903-0.447,6.969   c0.122,1.503,0.303,2.578,0.302,2.578c-0.919-0.642-1.764-0.976-2.452-1.149C30.807,37.955,31.656,41.151,32.913,43.92z"/><path fill="none" d="M30.672,53.914c0.04-0.004,0.081-0.008,0.121-0.015c0.321-0.042,0.645-0.079,0.971-0.11   c0,0.033,0.01,0.067,0.011,0.1c0.005,0.097,0.021,0.189,0.032,0.286c0.06,0.54,0.221,1.065,0.475,1.571   c1.697,4.271,7.188,12.37,10.423,16.968l0.667-9.552c-0.945-0.486-1.757-1.287-2.278-2.217c-0.375-0.668-0.603-1.398-0.603-2.143   c0,0,2.413,1.068,4.875,1.068c2.463,0,4.876-1.068,4.876-1.068c0,0.805-0.267,1.596-0.698,2.307   c-0.524,0.859-1.293,1.596-2.182,2.053l0.649,9.306c3.438-4.47,8.993-11.963,11.021-16.257c0.413-0.654,0.664-1.35,0.737-2.069   c0.002-0.005,0.002-0.011,0.003-0.019c0.01-0.072,0.02-0.15,0.025-0.225c0-0.004,0.002-0.012,0.002-0.018   c0.002-0.031,0.012-0.061,0.012-0.094c0.736,0.067,1.461,0.171,2.174,0.303c10.438,1.966,18.378,10.956,18.767,21.874   c5.051-7.048,8.036-15.671,8.036-24.983c0-23.71-19.289-43-42.999-43c-23.71,0-43,19.29-43,43c0,9.313,2.986,17.938,8.038,24.985   C11.228,64.675,19.706,55.443,30.672,53.914z M28.312,28.222c1.292-8.937,8.624-15.785,17.476-15.785   c8.85,0,16.18,6.845,17.477,15.777c0.133,0.923,0.203,1.868,0.203,2.831c0,0.962-0.07,1.908-0.203,2.831   c-0.965,12.851-8.42,22.851-17.477,22.851c-8.94,0-16.32-9.743-17.435-22.358c-0.015-0.165-0.028-0.331-0.041-0.499   c-0.079-0.546-0.132-1.102-0.166-1.663c-0.021-0.384-0.036-0.77-0.036-1.161C28.11,30.086,28.179,29.143,28.312,28.222z"/><path d="M45.79,3.981c-25.916,0-47,21.084-47,47c0,25.915,21.084,46.998,47,46.998c25.915,0,46.999-21.083,46.999-46.998   C92.789,25.065,71.705,3.981,45.79,3.981z M45.79,7.981c23.71,0,42.999,19.29,42.999,43c0,9.313-2.985,17.936-8.036,24.983   c-0.389-10.918-8.328-19.908-18.767-21.874c-0.713-0.132-1.438-0.235-2.174-0.303c0,0.033-0.01,0.063-0.012,0.094   c0,0.006-0.002,0.014-0.002,0.018c-0.006,0.074-0.016,0.152-0.025,0.225c-0.001,0.008-0.001,0.014-0.003,0.019   c-0.073,0.72-0.324,1.415-0.737,2.069c-2.027,4.294-7.582,11.787-11.021,16.257l-0.649-9.306c0.889-0.457,1.657-1.193,2.182-2.053   c0.432-0.711,0.698-1.502,0.698-2.307c0,0-2.413,1.068-4.876,1.068c-2.462,0-4.875-1.068-4.875-1.068   c0,0.744,0.229,1.475,0.603,2.143c0.521,0.93,1.333,1.73,2.278,2.217l-0.667,9.552c-3.234-4.598-8.726-12.696-10.423-16.968   c-0.254-0.506-0.415-1.031-0.475-1.571c-0.011-0.097-0.027-0.189-0.032-0.286c-0.001-0.032-0.01-0.066-0.011-0.1   c-0.326,0.031-0.65,0.068-0.971,0.11c-0.041,0.007-0.081,0.011-0.121,0.015c-10.966,1.529-19.444,10.761-19.846,22.052   C5.775,68.918,2.789,60.294,2.789,50.98C2.789,27.271,22.079,7.981,45.79,7.981z"/><path d="M28.312,33.87c0.013,0.167,0.026,0.333,0.041,0.499c1.115,12.615,8.495,22.358,17.435,22.358   c9.057,0,16.512-10,17.477-22.851c0.133-0.923,0.203-1.869,0.203-2.831c0-0.963-0.07-1.908-0.203-2.831   c-1.297-8.932-8.627-15.777-17.477-15.777c-8.852,0-16.184,6.848-17.476,15.785c-0.133,0.92-0.202,1.864-0.202,2.824   c0,0.391,0.015,0.776,0.036,1.161C28.18,32.768,28.233,33.323,28.312,33.87z M32.64,33.082c-0.168-2.066-0.224-4.939,0.447-6.969   c0.359-1.086,0.924-1.932,1.796-2.276c0,0,12.217,5.942,20.432,0c0,0,3.733,5.907,3.75,9.415c0.001,0.5-0.072,0.953-0.244,1.332   l2.482-2.851c-0.011,0.757-0.068,1.502-0.174,2.23c-0.582,7.757-3.858,14.332-8.432,17.682c-2.081,1.523-4.428,2.38-6.912,2.38   c-0.488,0-0.973-0.033-1.45-0.1c-0.477-0.064-0.947-0.16-1.412-0.288c-4.171-1.142-7.753-4.736-10.013-9.718   c-1.257-2.769-2.106-5.965-2.422-9.41c0.688,0.173,1.532,0.507,2.452,1.149C32.943,35.659,32.762,34.584,32.64,33.082z"/></g></svg>