<svg xmlns="http://www.w3.org/2000/svg" data-name="Layer 1" viewBox="0 0 100 125" x="0px" y="0px"><defs><style>.cls-1{stroke:#000;stroke-miterlimit:10;stroke-width:0.01px;}</style></defs><title>collections_08</title><path class="cls-1" d="M67.81,71.42a0.75,0.75,0,0,1-.51,1,24.14,24.14,0,0,1-5.69,2.06,43.72,43.72,0,0,1-8.33,1.15,59.65,59.65,0,0,1-9.45-.22A34.59,34.59,0,0,1,33.93,73c-0.48-.21-0.94-0.47-1.42-0.71a0.58,0.58,0,0,1-.32-0.61c0-1.39.07-3.65,0.19-5.67a24.53,24.53,0,0,1,.3-3,20,20,0,0,1,.79-3,3.56,3.56,0,0,1,.46-0.89,2.87,2.87,0,0,1,1.5-1.12c2.35-.74,4.7-1.5,7-2.25l0.24-.07a10.47,10.47,0,0,1,1.34-.33c0-.69,1-1.29,2.46-1.67h0a10,10,0,0,0,1.77.44,11.07,11.07,0,0,0,5.18-.43c1.46,0.36,2.42,1,2.46,1.63a13.87,13.87,0,0,1,1.41.36h0l2.13,0.67c1.65,0.53,3.28,1.09,4.93,1.6A3,3,0,0,1,66,59.06a4.81,4.81,0,0,1,.72,1.49A20.06,20.06,0,0,1,67.58,65c0,0.27,0,.61.06,1C67.71,67.7,67.75,70.27,67.81,71.42ZM10.67,60.72v3.64A1.66,1.66,0,0,0,12.33,66h17a29.73,29.73,0,0,1,.37-3.6,22.07,22.07,0,0,1,.87-3.36H12.33A1.66,1.66,0,0,0,10.67,60.72Zm77-1.66H69.43a5.46,5.46,0,0,1,.21.61,23.32,23.32,0,0,1,.94,5.12c0,0.33,0,.75.06,1.23h17a1.66,1.66,0,0,0,1.66-1.66V60.72A1.66,1.66,0,0,0,87.67,59.06ZM33,38.34a7,7,0,1,0-7-7A7,7,0,0,0,33,38.34ZM18.49,55.62H33.32a5.94,5.94,0,0,1,1.2-.54c1.89-.59,3.78-1.2,5.66-1.81l1.38-.44,0.52-.15a5.27,5.27,0,0,1,1-.87,11.12,11.12,0,0,1-4.22-8.25,4.09,4.09,0,0,1,0-.49c0-.34,0-0.68,0-1l-1.49-.47c-0.36-.11-0.37-0.09-0.46.34-0.58,3-1.32,5.84-2.14,8.71,0,0.18-.12.37-0.2,0.63a1.5,1.5,0,0,1,0-.17c-0.18-1.76-.36-3.53-0.56-5.28a2.45,2.45,0,0,1,.18-1.35,5.53,5.53,0,0,0,.25-0.68,1,1,0,0,0-.42-1.2c-0.73,0-1.46,0-2.19,0a0.32,0.32,0,0,0-.22.14,1.23,1.23,0,0,0-.15,1.19c0.1,0.28.19,0.56,0.31,0.83a1.71,1.71,0,0,1,.09.87c-0.14,1.27-.27,2.55-0.4,3.82-0.06.59-.13,1.16-0.19,1.74H31.24c-0.93-3.15-1.74-6.36-2.38-9.65a2.39,2.39,0,0,0-.49.08l-8,2.57a2.64,2.64,0,0,0-1.7,1.74A18.49,18.49,0,0,0,18,48.54a52,52,0,0,0-.39,6.14A0.92,0.92,0,0,0,18.49,55.62Zm27.87-5.29,0.35,0.17h0A8.05,8.05,0,0,0,48.2,51a7.64,7.64,0,0,0,1.8.21A7.73,7.73,0,0,0,51.81,51a8.32,8.32,0,0,0,1.46-.48l0.37-.17a8.13,8.13,0,0,0,4.47-7c0-.1,0-0.2,0-0.3V43a8.11,8.11,0,0,0-6.3-7.85A7.88,7.88,0,0,0,50,35a7.64,7.64,0,0,0-1.8.21,8.1,8.1,0,0,0-5.69,4.77A8,8,0,0,0,41.88,43v0.08c0,0.1,0,.2,0,0.3A8.13,8.13,0,0,0,46.36,50.33Zm24.72-8.4c-0.59,3-1.32,5.84-2.14,8.71-0.06.18-.12,0.37-0.21,0.63a1.5,1.5,0,0,1,0-.17c-0.18-1.76-.35-3.53-0.55-5.28a2.45,2.45,0,0,1,.17-1.35c0.1-.22.18-0.45,0.26-0.68a1,1,0,0,0-.43-1.2c-0.73,0-1.46,0-2.19,0a0.32,0.32,0,0,0-.21.14,1.25,1.25,0,0,0-.16,1.19c0.11,0.28.2,0.56,0.31,0.83a1.61,1.61,0,0,1,.09.87c-0.14,1.27-.27,2.55-0.4,3.82-0.06.59-.12,1.16-0.19,1.74H65.35Q63.94,46.47,63,41.54a2.61,2.61,0,0,0-.5.08l-1.39.45c0,0.33,0,.66,0,1a4.09,4.09,0,0,1,0,.49,11.12,11.12,0,0,1-4.22,8.25,5.44,5.44,0,0,1,1,.83l0.41,0.12,2.16,0.68,2,0.66L65.34,55a6,6,0,0,1,1.32.59H81.51a0.92,0.92,0,0,0,.92-0.94c0-1.45-.09-3.44-0.15-4.37a17.86,17.86,0,0,0-.71-3.87,3.1,3.1,0,0,0-2-2.29c-1.42-.44-2.84-0.93-4.26-1.38l-3.77-1.18C71.17,41.48,71.17,41.5,71.08,41.93Zm-4-3.59a7,7,0,1,0-7-7A7,7,0,0,0,67.06,38.34Z"/><text x="0" y="115" fill="#000000" font-size="5px" font-weight="bold" font-family="'Helvetica Neue', Helvetica, Arial-Unicode, Arial, Sans-serif"></text><text x="0" y="120" fill="#000000" font-size="5px" font-weight="bold" font-family="'Helvetica Neue', Helvetica, Arial-Unicode, Arial, Sans-serif"></text></svg>