<?xml version="1.0" encoding="UTF-8"?>
<svg width="94px" height="96px" viewBox="0 0 94 96" version="1.1" xmlns="http://www.w3.org/2000/svg" xmlns:xlink="http://www.w3.org/1999/xlink">
    <!-- Generator: Sketch 42 (36781) - http://www.bohemiancoding.com/sketch -->
    <title>strategy-icon</title>
    <desc>Created with Sketch.</desc>
    <defs>
        <linearGradient x1="85.2508956%" y1="3.7807599%" x2="27.548977%" y2="77.8679028%" id="linearGradient-1">
            <stop stop-color="#00C6FF" offset="0%"></stop>
            <stop stop-color="#0072FF" offset="100%"></stop>
        </linearGradient>
    </defs>
    <g id="Page-1" stroke="none" stroke-width="1" fill="none" fill-rule="evenodd">
        <g id="strategy-icon" fill-rule="nonzero" fill="url(#linearGradient-1)">
            <path d="M78.29,95.14 C85.4338068,95.1528882 91.6185635,90.179885 93.1395497,83.1998605 C94.6605359,76.219836 91.1055404,69.1244865 84.6040349,66.1639853 C78.1025294,63.203484 70.4165241,65.1801734 66.15,70.91 C62.5179761,69.1741874 59.204818,66.8380728 56.35,64 C43.61,51.34 42.73,31 53,16.83 L53.92,21.24 C54.4225791,23.6645301 56.7954699,25.2225791 59.22,24.72 C61.6445301,24.2174209 63.2025791,21.8445301 62.7,19.42 L59.59,4.42 C59.0611923,2.01873487 56.6958403,0.492413447 54.29,1 L39.29,4.11 C38.1252556,4.35053734 37.1039567,5.04434244 36.4511814,6.03851159 C35.7984062,7.03268075 35.5677335,8.245614 35.81,9.41 L35.81,9.41 C36.0505373,10.5747444 36.7443424,11.5960433 37.7385116,12.2488186 C38.7326808,12.9015938 39.945614,13.1322665 41.11,12.89 L45.52,11.97 C33.06,29.61 34.27,54.68 50,70.33 C53.797038,74.1140325 58.24474,77.1830485 63.13,79.39 L63.13,79.97 C63.1410037,88.3396952 69.9203139,95.1234772 78.29,95.14 Z M78.29,73.76 C81.7157743,73.76004 84.4944296,76.5342784 84.4999196,79.9600483 C84.5054095,83.3858181 81.73566,86.1689481 78.3099034,86.1799679 C74.8841469,86.1909877 72.0965496,83.4257343 72.08,80 C72.0720183,78.3478138 72.722759,76.7605581 73.8882262,75.5894606 C75.0536933,74.4183632 76.6377946,73.7599807 78.29,73.76 Z M67.26,48 L71.94,43.32 L67.26,38.64 C66.4185139,37.7996619 65.9456753,36.6592296 65.9456753,35.47 C65.9456753,34.2807704 66.4185139,33.1403381 67.26,32.3 L67.26,32.3 C68.1003381,31.4585139 69.2407704,30.9856753 70.43,30.9856753 C71.6192296,30.9856753 72.7596619,31.4585139 73.6,32.3 L78.29,37 L83,32.34 C83.8403381,31.4985139 84.9807704,31.0256753 86.17,31.0256753 C87.3592296,31.0256753 88.4996619,31.4985139 89.34,32.34 L89.34,32.34 C90.1814861,33.1803381 90.6543247,34.3207704 90.6543247,35.51 C90.6543247,36.6992296 90.1814861,37.8396619 89.34,38.68 L84.66,43.36 L89.31,48 C90.4514636,49.1271729 90.9048798,50.7776872 90.4994512,52.3298101 C90.0940225,53.8819331 88.8913433,55.0998602 87.3444512,55.5248101 C85.797559,55.9497601 84.1414636,55.5171729 83,54.39 L78.29,49.7 L73.6,54.39 C71.8354502,56.1407426 68.9857427,56.1295497 67.235,54.365 C65.4842574,52.6004502 65.4954503,49.7507427 67.26,48 L67.26,48 Z M38,77 L33.32,81.68 L38,86.41 C39.1325319,87.5425319 39.574836,89.1932332 39.1603005,90.7403005 C38.7457651,92.2873679 37.5373679,93.4957651 35.9903005,93.9103005 C34.4432332,94.324836 32.7925319,93.8825319 31.66,92.75 L27,88.06 L22.32,92.74 C20.5460571,94.3165451 17.8504393,94.2361398 16.1736174,92.5566648 C14.4967955,90.8771897 14.4206522,88.1814482 16,86.41 L20.68,81.73 L16,77 C14.8674681,75.8674681 14.425164,74.2167668 14.8396994,72.6696994 C15.2542349,71.1226321 16.4626321,69.9142349 18.0096994,69.4996994 C19.5567668,69.085164 21.2074681,69.5274681 22.34,70.66 L27,75.39 L31.68,70.71 C32.7588376,69.3883821 34.4946733,68.7942223 36.157092,69.1775346 C37.8195108,69.5608469 39.1199276,70.8550909 39.5111456,72.515667 C39.9023635,74.1762431 39.3164697,75.9148862 38,77 Z M1.85,43.16 L6.53,38.48 L1.85,33.79 C0.0992573876,32.0392573 0.0992574087,29.2007427 1.85000005,27.45 C3.60074269,25.6992574 6.43925734,25.6992574 8.19,27.45 L12.87,32.13 L17.55,27.45 C18.6825319,26.317468 20.3332332,25.8751639 21.8803006,26.2896994 C23.427368,26.7042348 24.6357652,27.912632 25.0503006,29.4596994 C25.4648361,31.0067668 25.022532,32.6574681 23.89,33.79 L19.21,38.47 L23.89,43.15 C25.0225319,44.2825319 25.464836,45.9332332 25.0503005,47.4803005 C24.6357651,49.0273679 23.4273679,50.2357651 21.8803005,50.6503005 C20.3332332,51.064836 18.6825319,50.6225319 17.55,49.49 L12.87,44.81 L8.19,49.5 C6.43925734,51.2507427 3.60074266,51.2507427 1.85,49.5 C0.099257343,47.7492573 0.099257343,44.9107427 1.85,43.16 L1.85,43.16 Z" id="Shape"></path>
        </g>
    </g>
</svg>