<?xml version="1.0" encoding="UTF-8"?>
<svg width="31px" height="28px" viewBox="0 0 31 28" version="1.1" xmlns="http://www.w3.org/2000/svg" xmlns:xlink="http://www.w3.org/1999/xlink">
    <!-- Generator: Sketch 42 (36781) - http://www.bohemiancoding.com/sketch -->
    <title>arrow-right</title>
    <desc>Created with Sketch.</desc>
    <defs></defs>
    <g id="Page-1" stroke="none" stroke-width="1" fill="none" fill-rule="evenodd">
        <g id="arrow-right" fill-rule="nonzero" fill="#FFFFFF">
            <path d="M15.5,27.3 C14.6,27.3 13.8,27 13.1,26.3 C11.8,25 11.8,22.9 13.1,21.6 L17.2,17.5 L3.5,17.5 C1.6,17.5 0,15.9 0,14 C0,12.1 1.6,10.5 3.5,10.5 L17.3,10.5 L13.2,6.4 C11.9,5.1 11.9,3 13.2,1.7 C14.5,0.4 16.6,0.4 17.9,1.7 L29.9,13.7 C30.1,13.9 30.1,14.2 29.9,14.4 L17.9,26.4 C17.2,27 16.4,27.3 15.5,27.3 Z" id="Shape"></path>
        </g>
    </g>
</svg>