<?xml version="1.0" encoding="UTF-8"?>
<svg width="97px" height="96px" viewBox="0 0 97 96" version="1.1" xmlns="http://www.w3.org/2000/svg" xmlns:xlink="http://www.w3.org/1999/xlink">
    <!-- Generator: Sketch 41.2 (35397) - http://www.bohemiancoding.com/sketch -->
    <title>noun_65100_cc</title>
    <desc>Created with Sketch.</desc>
    <defs></defs>
    <g id="Page-1" stroke="none" stroke-width="1" fill="#2DDE98" fill-rule="evenodd">
        <g id="noun_65100_cc">
            <g id="Group">
                <g id="noun_684873_cc">
                    <g>
                        <g id="Group">
                            <g transform="translate(0.377358, 0.000000)" id="Shape">
                                <path d="M48.1509434,0.548295455 C21.8999245,0.548295455 0.547169811,21.9493636 0.547169811,48.25 C0.547169811,74.5506364 21.8999245,95.9517045 48.1509434,95.9517045 C74.4019623,95.9517045 95.754717,74.5506364 95.754717,48.25 C95.754717,21.9493636 74.4019623,0.548295455 48.1509434,0.548295455 Z M48.1509434,90.6529773 C24.8196226,90.6529773 5.83501887,71.6293182 5.83501887,48.25 C5.83501887,24.8706818 24.8196226,5.84702273 48.1509434,5.84702273 C71.4822642,5.84702273 90.4668679,24.8706818 90.4668679,48.25 C90.4668679,71.6293182 71.4822642,90.6529773 48.1509434,90.6529773 Z"></path>
                            </g>
                            <path d="M59.1818756,23 L59.1818756,23.0183957 C59.1348805,23.0210254 59.0881487,23.0271739 59.0420729,23.0367896 L30,23.0367896 L30,72.011719 L39.8891684,72.011719 L53.4757368,72.011719 L59.2701717,72.011719 L67.6730226,72.011719 L67.6730226,31.6603818 C67.689231,31.560475 67.689231,31.4586087 67.6730226,31.3587019 L67.6730226,31.1232455 L67.5148242,30.9687277 C67.510023,30.9613008 67.5051175,30.9539419 67.5001091,30.9466532 C67.4487249,30.8773716 67.3880676,30.8154765 67.319838,30.7627034 C67.3150093,30.7565104 67.3101032,30.750378 67.3051211,30.7443076 L59.9471088,23.3862954 C59.9010749,23.3261744 59.8479594,23.2718237 59.7889123,23.2244201 C59.7840835,23.2182271 59.7791775,23.2120947 59.7741953,23.2060243 L59.5865667,23.0183957 L59.3437528,23.0183957 C59.2904263,23.0076001 59.2362647,23.0014451 59.1818756,23 L59.1818756,23 Z M31.8836511,24.9130832 L58.254767,24.9130832 L58.254767,32.4476877 L65.7893715,32.4476877 L65.7893715,70.1207103 L59.2701717,70.1207103 L53.4757368,70.1207103 L39.8891684,70.1207103 L31.8836511,70.1207103 L31.8836511,24.9130832 Z M60.1384181,26.2448848 L64.4575699,30.5640366 L60.1384181,30.5640366 L60.1384181,26.2448848 Z M41.3019068,28.6803854 L41.3019068,30.5640366 L54.4874647,30.5640366 L54.4874647,28.6803854 L41.3019068,28.6803854 Z M35.6509534,34.3313388 L35.6509534,36.21499 L62.0220692,36.21499 L62.0220692,34.3313388 L35.6509534,34.3313388 Z M35.6509534,38.0986411 L35.6509534,39.9822922 L62.0220692,39.9822922 L62.0220692,38.0986411 L35.6509534,38.0986411 Z M35.6509534,41.8659434 L35.6509534,43.7495945 L62.0220692,43.7495945 L62.0220692,41.8659434 L35.6509534,41.8659434 Z M35.6509534,45.6332456 L35.6509534,47.5168968 L62.0220692,47.5168968 L62.0220692,45.6332456 L35.6509534,45.6332456 Z M35.6509534,49.4005479 L35.6509534,51.284199 L62.0220692,51.284199 L62.0220692,49.4005479 L35.6509534,49.4005479 Z M35.6509534,53.1678501 L35.6509534,55.0515013 L54.4874647,55.0515013 L54.4874647,53.1678501 L35.6509534,53.1678501 Z M48.8365113,60.7024547 C47.2871988,60.7024547 46.0110478,61.9786283 46.0110346,63.5279314 C46.0110478,65.0772344 47.2871988,66.3534081 48.8365113,66.3534081 C50.3858238,66.3534081 51.6619748,65.0772344 51.661988,63.5279314 C51.6619748,61.9786283 50.3858238,60.7024547 48.8365113,60.7024547 Z M35.6509534,62.5861058 L35.6509534,64.4697569 L43.1855579,64.4697569 L43.1855579,62.5861058 L35.6509534,62.5861058 Z M48.8365113,62.5861058 C49.3678271,62.5861058 49.7783312,62.9967417 49.7783369,63.5279314 C49.7783312,64.0593094 49.3678271,64.4697569 48.8365113,64.4697569 C48.3051936,64.4697569 47.8946895,64.0593094 47.8946857,63.5279314 C47.8946895,62.9967417 48.3051936,62.5861058 48.8365113,62.5861058 Z M54.4874647,62.5861058 L54.4874647,64.4697569 L62.0220692,64.4697569 L62.0220692,62.5861058 L54.4874647,62.5861058 Z" id="Shape"></path>
                        </g>
                    </g>
                </g>
            </g>
        </g>
    </g>
</svg>