<?xml version="1.0" encoding="UTF-8"?>
<svg width="85px" height="85px" viewBox="0 0 85 85" version="1.1" xmlns="http://www.w3.org/2000/svg" xmlns:xlink="http://www.w3.org/1999/xlink">
    <!-- Generator: Sketch 42 (36781) - http://www.bohemiancoding.com/sketch -->
    <title>Group</title>
    <desc>Created with Sketch.</desc>
    <defs>
        <linearGradient x1="93.8048053%" y1="4.28520744%" x2="23.7982765%" y2="76.2554072%" id="linearGradient-1">
            <stop stop-color="#00C6FF" offset="0%"></stop>
            <stop stop-color="#0072FF" offset="100%"></stop>
        </linearGradient>
        <linearGradient x1="50%" y1="0%" x2="50%" y2="100%" id="linearGradient-2">
            <stop stop-color="#00B7FF" offset="0%"></stop>
            <stop stop-color="#0072FF" offset="100%"></stop>
        </linearGradient>
    </defs>
    <g id="Page-1" stroke="none" stroke-width="1" fill="none" fill-rule="evenodd">
        <g id="Group" fill-rule="nonzero">
            <path d="M52.983,0.954 C35.74,0.954 21.76,14.942 21.76,32.198 C21.76,37.474 23.078,42.437 25.388,46.798 L3.678,68.517 L3.696,68.535 C2.001,70.203 0.944,72.517 0.944,75.083 C0.944,80.159 5.055,84.272 10.127,84.272 C12.691,84.272 15.003,83.215 16.67,81.518 L16.665,81.512 L38.368,59.799 C42.728,62.118 47.698,63.442 52.983,63.442 C70.226,63.442 84.206,49.454 84.206,32.198 C84.206,14.942 70.226,0.954 52.983,0.954 Z M13.42,78.263 C12.582,79.129 11.423,79.675 10.127,79.675 C7.591,79.675 5.535,77.619 5.535,75.082 C5.535,73.785 6.082,72.625 6.947,71.786 L6.925,71.765 L27.913,50.764 C29.748,53.239 31.933,55.426 34.403,57.268 L13.42,78.263 Z M52.983,58.234 C38.614,58.234 26.964,46.575 26.964,32.198 C26.964,17.819 38.614,6.161 52.983,6.161 C67.352,6.161 79.003,17.819 79.003,32.198 C79.003,46.575 67.352,58.234 52.983,58.234 Z" id="Shape" fill="url(#linearGradient-1)"></path>
            <path d="M49.06,10.535 C39.607,11.65 32.222,19.81 30.846,28.76 C30.737,29.471 31.428,30.062 32.147,30.062 C32.866,30.062 33.271,29.458 33.448,28.76 C35.915,19.033 41.652,14.759 49.06,13.138 C49.763,12.984 50.361,12.556 50.361,11.836 C50.361,11.118 49.774,10.451 49.06,10.535 Z" id="Shape" fill="url(#linearGradient-2)"></path>
        </g>
    </g>
</svg>