<?xml version="1.0" encoding="UTF-8"?>
<svg width="98px" height="84px" viewBox="0 0 98 84" version="1.1" xmlns="http://www.w3.org/2000/svg" xmlns:xlink="http://www.w3.org/1999/xlink">
    <!-- Generator: Sketch 42 (36781) - http://www.bohemiancoding.com/sketch -->
    <title>meeting-icon</title>
    <desc>Created with Sketch.</desc>
    <defs>
        <linearGradient x1="89.1500976%" y1="8.96895751%" x2="12.7029486%" y2="82.4716483%" id="linearGradient-1">
            <stop stop-color="#00C6FF" offset="0%"></stop>
            <stop stop-color="#0072FF" offset="100%"></stop>
        </linearGradient>
    </defs>
    <g id="Page-1" stroke="none" stroke-width="1" fill="none" fill-rule="evenodd">
        <g id="meeting-icon" transform="translate(-1.000000, 0.000000)" fill-rule="nonzero" fill="url(#linearGradient-1)">
            <path d="M42.45,8.33 C42.45,4.16025014 45.8302501,0.78 50,0.78 C54.1697499,0.78 57.55,4.16025014 57.55,8.33 C57.55,12.4997499 54.1697499,15.88 50,15.88 C45.8302501,15.88 42.45,12.4997499 42.45,8.33 L42.45,8.33 Z M37.89,32.55 L62.11,32.55 C63.2145695,32.55 64.11,31.6545695 64.11,30.55 L64.11,24.45 C64.11,21.0147889 61.3252111,18.23 57.89,18.23 L55.62,18.23 L50.68,23.17 C50.2978909,23.5195764 49.7121091,23.5195764 49.33,23.17 L44.39,18.23 L42.13,18.23 C38.6947889,18.23 35.91,21.0147889 35.91,24.45 L35.91,30.55 C35.9099452,31.6468059 36.7932489,32.5390319 37.89,32.55 Z M21.47,80.17 L30.92,39.9 C31.1710335,38.8272193 32.12824,38.0689128 33.23,38.07 L66.77,38.07 C67.87176,38.0689128 68.8289665,38.8272193 69.08,39.9 L78.53,80.17 C78.6868725,80.9015231 78.505123,81.6647704 78.0353914,82.2470824 C77.5656597,82.8293943 76.8581529,83.1685308 76.11,83.17 L66.54,83.17 L66.54,78.58 C66.5344891,73.6945645 62.5754355,69.7355109 57.69,69.73 L42.21,69.73 C37.3613771,69.7847902 33.4596904,73.7310676 33.46,78.58 L33.46,83.22 L23.88,83.22 C23.1226403,83.2188986 22.4072975,82.8717874 21.9377508,82.2775477 C21.468204,81.6833081 21.2959284,80.9070848 21.47,80.17 L21.47,80.17 Z M41.14,56.09 C41.14,60.9832429 45.1067571,64.95 50,64.95 C54.8932429,64.95 58.86,60.9832429 58.86,56.09 C58.86,51.1967571 54.8932429,47.23 50,47.23 C45.1067571,47.23 41.14,51.1967571 41.14,56.09 Z M88.51,45 C83.2151178,45.4558632 79.1727035,49.9260924 79.25,55.24 L79.25,61.2 C79.25,62.2603867 80.1096133,63.12 81.17,63.12 L97.08,63.12 C98.1403867,63.12 99,62.2603867 99,61.2 L99,54.9 C99.0107478,52.1669939 97.8889314,49.5516247 95.9013017,47.6757874 C93.913672,45.79995 91.2378118,44.8312393 88.51,45 L88.51,45 Z M89.12,40.48 C92.4078649,40.4799601 95.3712107,38.4972297 96.6256526,35.45808 C97.8800946,32.4189303 97.1780189,28.9232575 94.847414,26.6041334 C92.5168092,24.2850094 89.017712,23.6002048 85.9847941,24.8696394 C82.9518761,26.1390741 80.9838036,29.112175 81,32.4 C81,34.5535579 81.8554975,36.6189117 83.3782929,38.1417071 C84.9010883,39.6645025 86.9664421,40.52 89.12,40.52 L89.12,40.48 Z M2.92,63.11 L18.83,63.11 C19.3392157,63.11 19.8275752,62.9077149 20.187645,62.547645 C20.5477149,62.1875752 20.75,61.6992157 20.75,61.19 L20.75,54.89 C20.757801,52.1605772 19.6361314,49.5495254 17.6510617,47.6762107 C15.665992,45.8028959 12.9943956,44.8342338 10.27,45 C4.95553834,45.4519033 0.901843422,49.9472629 1,55.28 L1,61.2 C1.00550257,62.2564794 1.86350628,63.1100143 2.92,63.11 L2.92,63.11 Z M10.92,40.52 C15.3979398,40.492426 19.0082863,36.8448589 18.9899318,32.3668718 C18.9715773,27.8888847 15.3314513,24.271036 10.8534359,24.2801708 C6.37542044,24.2893056 2.7500849,27.9219753 2.75,32.4 C2.74999837,34.5552916 3.60686849,36.6221623 5.13182738,38.1452455 C6.65678628,39.6683287 8.72471001,40.5226543 10.88,40.52 L10.92,40.52 Z" id="Shape"></path>
        </g>
    </g>
</svg>